<svg xmlns="http://www.w3.org/2000/svg" viewBox="0 0 64 64">
  <!-- Cricket ball -->
  <circle cx="32" cy="32" r="28" fill="#dc2626" />
  <!-- Seam line (vertical arc) -->
  <path d="M32 4 C24 16, 24 48, 32 60" fill="none" stroke="#fef2f2" stroke-width="2.5" stroke-linecap="round"/>
  <path d="M32 4 C40 16, 40 48, 32 60" fill="none" stroke="#fef2f2" stroke-width="2.5" stroke-linecap="round"/>
  <!-- Seam stitches left -->
  <line x1="26" y1="14" x2="30" y2="16" stroke="#fef2f2" stroke-width="1.5" stroke-linecap="round"/>
  <line x1="24.5" y1="20" x2="29" y2="21.5" stroke="#fef2f2" stroke-width="1.5" stroke-linecap="round"/>
  <line x1="24" y1="26" x2="28.5" y2="27" stroke="#fef2f2" stroke-width="1.5" stroke-linecap="round"/>
  <line x1="24" y1="32" x2="28.5" y2="32" stroke="#fef2f2" stroke-width="1.5" stroke-linecap="round"/>
  <line x1="24" y1="38" x2="28.5" y2="37" stroke="#fef2f2" stroke-width="1.5" stroke-linecap="round"/>
  <line x1="24.5" y1="44" x2="29" y2="42.5" stroke="#fef2f2" stroke-width="1.5" stroke-linecap="round"/>
  <line x1="26" y1="50" x2="30" y2="48" stroke="#fef2f2" stroke-width="1.5" stroke-linecap="round"/>
  <!-- Seam stitches right -->
  <line x1="38" y1="14" x2="34" y2="16" stroke="#fef2f2" stroke-width="1.5" stroke-linecap="round"/>
  <line x1="39.5" y1="20" x2="35" y2="21.5" stroke="#fef2f2" stroke-width="1.5" stroke-linecap="round"/>
  <line x1="40" y1="26" x2="35.5" y2="27" stroke="#fef2f2" stroke-width="1.5" stroke-linecap="round"/>
  <line x1="40" y1="32" x2="35.5" y2="32" stroke="#fef2f2" stroke-width="1.5" stroke-linecap="round"/>
  <line x1="40" y1="38" x2="35.5" y2="37" stroke="#fef2f2" stroke-width="1.5" stroke-linecap="round"/>
  <line x1="39.5" y1="44" x2="35" y2="42.5" stroke="#fef2f2" stroke-width="1.5" stroke-linecap="round"/>
  <line x1="38" y1="50" x2="34" y2="48" stroke="#fef2f2" stroke-width="1.5" stroke-linecap="round"/>
  <!-- Subtle shine -->
  <ellipse cx="22" cy="18" rx="6" ry="8" fill="white" opacity="0.15" transform="rotate(-20 22 18)"/>
</svg>
